<?xml version="1.0"?>
<svg xmlns="http://www.w3.org/2000/svg" width="50" height="50" viewBox="0 0 50 50">
    <path style="text-indent:0;text-align:start;line-height:normal;text-transform:none;block-progression:tb;-inkscape-font-specification:Bitstream Vera Sans" d="M 34 4 L 34 5 L 34 49 L 34 50 L 35 50 L 47 50 L 48 50 L 48 49 L 48 5 L 48 4 L 47 4 L 35 4 L 34 4 z M 36 6 L 46 6 L 46 48 L 36 48 L 36 6 z M 2 17 L 2 18 L 2 49 L 2 50 L 3 50 L 15 50 L 16 50 L 16 49 L 16 18 L 16 17 L 15 17 L 3 17 L 2 17 z M 4 19 L 14 19 L 14 48 L 4 48 L 4 19 z M 18 28 L 18 29 L 18 49 L 18 50 L 19 50 L 31 50 L 32 50 L 32 49 L 32 29 L 32 28 L 31 28 L 19 28 L 18 28 z M 20 30 L 30 30 L 30 48 L 20 48 L 20 30 z" overflow="visible" enable-background="accumulate" font-family="Bitstream Vera Sans"/>
</svg>
