<?xml version="1.0"?>
<svg xmlns="http://www.w3.org/2000/svg" viewBox="0 0 64 64">
    <path d="M 7 8 C 5.346 8 4 9.346 4 11 L 4 53 C 4 54.654 5.346 56 7 56 L 57 56 C 58.654 56 60 54.654 60 53 L 60 11 C 60 9.346 58.654 8 57 8 L 7 8 z M 7 10 L 57 10 C 57.552 10 58 10.449 58 11 L 58 18 L 6 18 L 6 11 C 6 10.449 6.448 10 7 10 z M 9 12 C 8.447 12 8 12.448 8 13 L 8 15 C 8 15.552 8.447 16 9 16 C 9.553 16 10 15.552 10 15 L 10 13 C 10 12.448 9.553 12 9 12 z M 14 12 C 13.447 12 13 12.448 13 13 L 13 15 C 13 15.552 13.447 16 14 16 C 14.553 16 15 15.552 15 15 L 15 13 C 15 12.448 14.553 12 14 12 z M 19 12 C 18.447 12 18 12.448 18 13 L 18 15 C 18 15.552 18.447 16 19 16 C 19.553 16 20 15.552 20 15 L 20 13 C 20 12.448 19.553 12 19 12 z M 24 12 C 23.447 12 23 12.448 23 13 L 23 15 C 23 15.552 23.447 16 24 16 C 24.553 16 25 15.552 25 15 L 25 13 C 25 12.448 24.553 12 24 12 z M 29 12 C 28.447 12 28 12.448 28 13 L 28 15 C 28 15.552 28.447 16 29 16 C 29.553 16 30 15.552 30 15 L 30 13 C 30 12.448 29.553 12 29 12 z M 34 12 C 33.447 12 33 12.448 33 13 L 33 15 C 33 15.552 33.447 16 34 16 C 34.553 16 35 15.552 35 15 L 35 13 C 35 12.448 34.553 12 34 12 z M 39 12 C 38.447 12 38 12.448 38 13 L 38 15 C 38 15.552 38.447 16 39 16 C 39.553 16 40 15.552 40 15 L 40 13 C 40 12.448 39.553 12 39 12 z M 44 12 C 43.447 12 43 12.448 43 13 L 43 15 C 43 15.552 43.447 16 44 16 C 44.553 16 45 15.552 45 15 L 45 13 C 45 12.448 44.553 12 44 12 z M 49 12 C 48.447 12 48 12.448 48 13 L 48 15 C 48 15.552 48.447 16 49 16 C 49.553 16 50 15.552 50 15 L 50 13 C 50 12.448 49.553 12 49 12 z M 54 12 C 53.447 12 53 12.448 53 13 L 53 15 C 53 15.552 53.447 16 54 16 C 54.553 16 55 15.552 55 15 L 55 13 C 55 12.448 54.553 12 54 12 z M 6 20 L 58 20 L 58 53 C 58 53.551 57.552 54 57 54 L 7 54 C 6.448 54 6 53.551 6 53 L 6 20 z M 12 24.121094 C 10.897 24.121094 10 25.018094 10 26.121094 L 10 32.121094 C 10 33.224094 10.897 34.121094 12 34.121094 L 20 34.121094 C 21.103 34.121094 22 33.224094 22 32.121094 L 22 26.121094 C 22 25.018094 21.103 24.121094 20 24.121094 L 12 24.121094 z M 28 24.121094 C 26.897 24.121094 26 25.018094 26 26.121094 L 26 32.121094 C 26 33.224094 26.897 34.121094 28 34.121094 L 36 34.121094 C 37.103 34.121094 38 33.224094 38 32.121094 L 38 26.121094 C 38 25.018094 37.103 24.121094 36 24.121094 L 28 24.121094 z M 44 24.121094 C 42.897 24.121094 42 25.018094 42 26.121094 L 42 32.121094 C 42 33.224094 42.897 34.121094 44 34.121094 L 52 34.121094 C 53.103 34.121094 54 33.224094 54 32.121094 L 54 26.121094 C 54 25.018094 53.103 24.121094 52 24.121094 L 44 24.121094 z M 12 26.121094 L 20 26.121094 L 20.001953 32.121094 L 12 32.121094 L 12 26.121094 z M 28 26.121094 L 36 26.121094 L 36.001953 32.121094 L 28 32.121094 L 28 26.121094 z M 44 26.121094 L 52 26.121094 L 52.001953 32.121094 L 44 32.121094 L 44 26.121094 z M 12 38.121094 C 10.897 38.121094 10 39.018094 10 40.121094 L 10 46.121094 C 10 47.224094 10.897 48.121094 12 48.121094 L 20 48.121094 C 21.103 48.121094 22 47.224094 22 46.121094 L 22 40.121094 C 22 39.018094 21.103 38.121094 20 38.121094 L 12 38.121094 z M 28 38.121094 C 26.897 38.121094 26 39.018094 26 40.121094 L 26 46.121094 C 26 47.224094 26.897 48.121094 28 48.121094 L 36 48.121094 C 37.103 48.121094 38 47.224094 38 46.121094 L 38 40.121094 C 38 39.018094 37.103 38.121094 36 38.121094 L 28 38.121094 z M 44 38.121094 C 42.897 38.121094 42 39.018094 42 40.121094 L 42 46.121094 C 42 47.224094 42.897 48.121094 44 48.121094 L 52 48.121094 C 53.103 48.121094 54 47.224094 54 46.121094 L 54 40.121094 C 54 39.018094 53.103 38.121094 52 38.121094 L 44 38.121094 z M 12 40.121094 L 20 40.121094 L 20.001953 46.121094 L 12 46.121094 L 12 40.121094 z M 28 40.121094 L 36 40.121094 L 36.001953 46.121094 L 28 46.121094 L 28 40.121094 z M 44 40.121094 L 52 40.121094 L 52.001953 46.121094 L 44 46.121094 L 44 40.121094 z"/>
</svg>
