<?xml version="1.0"?>
<svg xmlns="http://www.w3.org/2000/svg" width="50" height="50" viewBox="0 0 50 50">
    <path d="M43.009,7.686C43.008,7.686,43.008,7.686,43.009,7.686c-0.001-0.001-0.002-0.001-0.002-0.002C38.455,2.953,32.068,0,25,0 C11.215,0,0,11.215,0,25s11.215,25,25,25s25-11.215,25-25C50,18.284,47.333,12.183,43.009,7.686z M33.204,3.518L26,10.723V7.527 c0.022-0.019,0.05-0.025,0.07-0.046l4.735-4.737C31.625,2.958,32.424,3.219,33.204,3.518z M37.205,5.519L26.576,16.147 c-0.19-0.034-0.382-0.066-0.576-0.088v-2.508l9.172-9.172C35.87,4.725,36.548,5.106,37.205,5.519z M40.858,8.365L30.75,18.083 c-0.609-0.507-1.29-0.93-2.019-1.264L38.878,6.674C39.57,7.2,40.229,7.766,40.858,8.365z M26,4.723V2.025 c0.832,0.036,1.654,0.113,2.461,0.235L26,4.723z M25,18c3.859,0,7,3.14,7,7c0,3.859-3.141,7-7,7c-3.86,0-7-3.141-7-7 C18,21.14,21.14,18,25,18z M2,25C2,12.653,11.78,2.551,24,2.025v14.034c-4.493,0.5-8,4.317-8,8.941c0,4.963,4.038,9,9,9 c2.122,0,4.071-0.742,5.611-1.975l9.921,9.921C36.437,45.703,30.982,48,25,48C12.318,48,2,37.683,2,25z"/>
</svg>
